<svg id="Capa_1" enable-background="new 0 0 512 512" height="512" viewBox="0 0 512 512" width="512" xmlns="http://www.w3.org/2000/svg"><g><g><path d="m256 365.128 48.336 138.872 45.41-44.406 63.168 6.614-48.066-138.096c-30.133 23.206-67.875 37.016-108.848 37.016z" fill="#98db7c"/><path d="m256 365.128c-40.973 0-78.715-13.81-108.848-37.015l-48.066 138.095 63.168-6.614 45.41 44.406z" fill="#98db7c"/><path d="m372.515 350.14-7.667-22.028c-30.132 23.206-67.875 37.015-108.848 37.015l7.69 22.094c40.491-1.525 77.916-15.026 108.825-37.081z" fill="#82d361"/><path d="m248.31 387.221 7.69-22.094c-40.973 0-78.715-13.81-108.848-37.015l-7.667 22.028c30.909 22.055 68.334 35.556 108.825 37.081z" fill="#82d361"/><ellipse cx="256" cy="186.564" fill="#e0e0e0" rx="178.564" ry="178.564" transform="matrix(.707 -.707 .707 .707 -56.94 235.663)"/><path d="m256 347.128c-95.6 0-173.651-75.128-178.339-169.564-.148 2.982-.225 5.982-.225 9 0 98.618 79.946 178.564 178.564 178.564s178.564-79.946 178.564-178.564c0-3.018-.077-6.018-.225-9-4.688 94.436-82.739 169.564-178.339 169.564z" fill="#cecece"/><ellipse cx="256" cy="186.564" fill="#9e9e9e" rx="140.67" ry="140.67" transform="matrix(.707 -.707 .707 .707 -56.94 235.663)"/><path d="m256 309.234c-74.666 0-135.734-58.175-140.376-131.67-.188 2.977-.295 5.976-.295 9 0 77.69 62.98 140.67 140.67 140.67s140.67-62.98 140.67-140.67c0-3.024-.107-6.023-.295-9-4.64 73.495-65.708 131.67-140.374 131.67z" fill="#898989"/><path d="m296.493 278.768h-80.631c-9.766 0-17.684-7.917-17.684-17.684 0-15.096 5.37-29.755 15.12-41.279l56.733-67.051c5.309-6.274 2.94-13.034 2.087-14.957-1.037-2.338-4.26-7.804-11.77-8.057-.217-.008-.442-.012-.669-.012-10.548 0-19.13 8.582-19.13 19.13 0 9.767-7.917 17.684-17.684 17.684-9.766 0-17.684-7.917-17.684-17.684 0-30.05 24.448-54.498 54.497-54.498.621 0 1.24.011 1.857.031 18.803.635 35.244 11.773 42.914 29.069 7.784 17.553 4.941 37.532-7.419 52.14l-56.733 67.051c-.209.247-.413.497-.613.75h56.809c9.766 0 17.684 7.917 17.684 17.684 0 9.766-7.917 17.683-17.684 17.683z" fill="#e0e0e0"/><g><path d="m296.493 260.768h-80.631c-7.6 0-14.061-4.803-16.562-11.532-.735 3.886-1.122 7.85-1.122 11.848 0 9.767 7.918 17.684 17.684 17.684h80.631c9.766 0 17.684-7.917 17.684-17.684 0-3.291-.915-6.361-2.481-9-3.081 5.193-8.727 8.684-15.203 8.684z" fill="#cecece"/></g></g><g><path d="m207.472 214.904c-10.916 12.903-16.928 29.317-16.928 46.219 0 13.915 11.32 25.236 25.236 25.236h80.798c13.915 0 25.237-11.321 25.237-25.236s-11.321-25.236-25.237-25.236h-40.743l13.944-16.479c2.681-3.169 2.286-7.911-.883-10.592-3.171-2.681-7.912-2.285-10.592.883l-23.776 28.099c-.265.314-.523.63-.778.952-1.783 2.261-2.117 5.342-.86 7.933s3.883 4.236 6.762 4.236h56.926c5.628 0 10.206 4.578 10.206 10.205s-4.578 10.205-10.206 10.205h-80.798c-5.627 0-10.205-4.578-10.205-10.205 0-13.352 4.749-26.318 13.372-36.511l56.851-67.189c6.469-7.646 5.908-16.837 3.224-22.891-3.361-7.575-10.243-12.262-18.411-12.538-.3-.01-.611-.016-.923-.016-14.714 0-26.685 11.971-26.685 26.685 0 5.627-4.578 10.205-10.205 10.205s-10.205-4.578-10.205-10.205c0-25.969 21.127-47.095 47.094-47.095.539 0 1.076.009 1.607.027 15.935.538 29.878 9.989 36.386 24.665 6.623 14.933 4.208 31.926-6.301 44.347l-13.656 16.139c-2.681 3.169-2.286 7.911.883 10.592 3.169 2.68 7.911 2.285 10.592-.883l13.656-16.139c14.262-16.857 17.545-39.905 8.568-60.149-8.864-19.987-27.877-32.859-49.624-33.594-.7-.023-1.404-.035-2.11-.035-34.256 0-62.125 27.87-62.125 62.126 0 13.915 11.32 25.236 25.236 25.236 13.915 0 25.236-11.321 25.236-25.236 0-6.426 5.228-11.654 11.654-11.654.142 0 .282.003.417.007 2.409.081 4.151 1.296 5.177 3.608.647 1.46 1.383 4.322-.958 7.089z"/><path d="m404.477 186.449c0-81.871-66.606-148.477-148.477-148.477s-148.477 66.606-148.477 148.477c0 4.151 3.364 7.516 7.516 7.516 4.151 0 7.516-3.365 7.516-7.516 0-73.583 59.864-133.446 133.445-133.446s133.445 59.863 133.445 133.446-59.864 133.446-133.445 133.446c-30.67 0-60.618-10.66-84.329-30.018-23.387-19.093-39.759-45.757-46.101-75.081-.877-4.055-4.87-6.631-8.934-5.757-4.057.877-6.635 4.877-5.757 8.934 7.058 32.639 25.272 62.31 51.286 83.547 26.387 21.542 59.711 33.405 93.835 33.405 81.87.001 148.477-66.605 148.477-148.476z"/><path d="m397.573 398.801c-1.363-3.92-5.642-5.992-9.569-4.627-3.919 1.364-5.991 5.648-4.627 9.568l18.873 54.223-51.527-5.396c-2.221-.228-4.437.537-6.038 2.102l-37.041 36.223-41.174-118.295c35.041-1.949 67.527-13.62 94.807-32.352l12.21 35.08c3.772 9.468 16.994 4.184 14.195-4.941l-13.785-39.606c41.815-34.22 68.552-86.209 68.552-144.33 0-102.809-83.641-186.45-186.449-186.45s-186.449 83.641-186.449 186.449c0 58.121 26.737 110.11 68.552 144.33l-46.44 133.422c-1.702 4.41 2.201 10.652 7.881 9.945l59.787-6.26 42.978 42.029c3.298 3.48 10.533 2.526 12.353-2.903l41.338-118.767 41.338 118.768c1.586 4.729 8.111 6.894 12.353 2.903l42.978-42.029 59.787 6.26c4.964.628 9.663-4.541 7.88-9.945zm-312.991-212.352c0-94.52 76.898-171.418 171.418-171.418s171.418 76.898 171.418 171.418-76.897 171.418-171.418 171.418-171.418-76.897-171.418-171.418zm119.774 304.445-37.041-36.223c-1.599-1.563-3.804-2.333-6.038-2.101l-51.527 5.395 40.974-117.718c27.28 18.732 59.766 30.403 94.807 32.352z"/></g></g></svg>