<svg id="Capa_1" enable-background="new 0 0 512 512" height="512" viewBox="0 0 512 512" width="512" xmlns="http://www.w3.org/2000/svg"><g><g><ellipse cx="256" cy="186.564" fill="#ff9838" rx="178.564" ry="178.564" transform="matrix(.707 -.707 .707 .707 -56.94 235.663)"/><path d="m256 347.128c-95.6 0-173.651-75.128-178.339-169.564-.148 2.981-.225 5.982-.225 9 0 98.618 79.946 178.564 178.564 178.564s178.564-79.946 178.564-178.564c0-3.018-.077-6.019-.225-9-4.688 94.436-82.739 169.564-178.339 169.564z" fill="#ff8709"/><path d="m256 365.128 48.336 138.872 45.41-44.406 63.168 6.614-48.066-138.096c-30.133 23.206-67.875 37.016-108.848 37.016z" fill="#0083fd"/><path d="m256 365.128c-40.973 0-78.715-13.81-108.848-37.015l-48.066 138.095 63.168-6.614 45.41 44.406z" fill="#0083fd"/><ellipse cx="256" cy="186.564" fill="#ce7430" rx="140.67" ry="140.67" transform="matrix(.707 -.707 .707 .707 -56.94 235.663)"/><path d="m256 309.234c-74.666 0-135.734-58.175-140.376-131.67-.188 2.977-.295 5.976-.295 9 0 77.69 62.98 140.67 140.67 140.67s140.67-62.98 140.67-140.67c0-3.024-.107-6.023-.295-9-4.64 73.495-65.708 131.67-140.374 131.67z" fill="#bc672e"/><path d="m372.515 350.14-7.667-22.028c-30.132 23.206-67.875 37.015-108.848 37.015l7.69 22.094c40.491-1.525 77.916-15.026 108.825-37.081z" fill="#0072fc"/><path d="m248.31 387.221 7.69-22.094c-40.973 0-78.715-13.81-108.848-37.015l-7.667 22.028c30.909 22.055 68.334 35.556 108.825 37.081z" fill="#0072fc"/><path d="m256.178 278.768c-30.296 0-54.944-24.648-54.944-54.944 0-9.767 7.918-17.684 17.684-17.684s17.684 7.917 17.684 17.684c0 10.795 8.781 19.576 19.576 19.576s19.577-8.782 19.577-19.576-8.782-19.577-19.577-19.577c-9.766 0-17.684-7.917-17.684-17.684s7.917-17.684 17.684-17.684c10.795 0 19.577-8.782 19.577-19.576 0-10.795-8.782-19.576-19.577-19.576s-19.576 8.781-19.576 19.576c0 9.767-7.918 17.684-17.684 17.684s-17.684-7.917-17.684-17.684c0-30.296 24.648-54.944 54.944-54.944 30.297 0 54.944 24.648 54.944 54.944 0 14.366-5.54 27.459-14.599 37.26 9.059 9.8 14.599 22.895 14.599 37.261 0 30.296-24.648 54.944-54.944 54.944z" fill="#ffaa5c"/><g fill="#ea9957"><path d="m256.178 186.247c-6.475 0-12.122-3.491-15.203-8.684-1.566 2.639-2.481 5.709-2.481 9 0 9.767 7.917 17.684 17.684 17.684 7.549 0 14.101 4.302 17.366 10.577 1.404-2.698 2.21-5.754 2.21-9 0-10.794-8.782-19.577-19.576-19.577z"/><path d="m256.178 260.768c-26.335 0-48.392-18.627-53.712-43.395-.785 2.001-1.232 4.172-1.232 6.451 0 30.296 24.648 54.944 54.944 54.944 30.297 0 54.945-24.648 54.945-54.944 0-3.064-.267-6.064-.751-8.993-4.312 26.025-26.966 45.937-54.194 45.937z"/></g></g><g><path d="m256.178 235.888c-6.673 0-12.101-5.428-12.101-12.101 0-13.915-11.32-25.236-25.236-25.236s-25.237 11.32-25.237 25.236c0 34.503 28.071 62.574 62.574 62.574s62.574-28.071 62.574-62.574c0-13.546-4.358-26.579-12.384-37.338 8.026-10.757 12.384-23.789 12.384-37.337 0-11.541-3.182-22.828-9.204-32.641-2.172-3.539-6.801-4.646-10.337-2.475-3.538 2.172-4.645 6.799-2.475 10.337 4.569 7.445 6.984 16.014 6.984 24.779 0 11.975-4.486 23.422-12.632 32.236-2.662 2.88-2.662 7.323 0 10.203 8.147 8.813 12.632 20.262 12.632 32.236 0 26.215-21.327 47.543-47.542 47.543s-47.543-21.327-47.543-47.543c0-5.627 4.578-10.205 10.206-10.205 5.627 0 10.205 4.578 10.205 10.205 0 14.961 12.172 27.132 27.132 27.132s27.132-12.172 27.132-27.132-12.172-27.132-27.132-27.132c-5.627 0-10.205-4.578-10.205-10.206 0-5.627 4.578-10.205 10.205-10.205 14.961 0 27.132-12.172 27.132-27.132s-12.172-27.132-27.132-27.132-27.132 12.172-27.132 27.132c0 5.627-4.578 10.205-10.205 10.205-5.628 0-10.206-4.578-10.206-10.205 0-26.215 21.327-47.542 47.543-47.542 7.558 0 14.784 1.728 21.479 5.136 3.7 1.884 8.225.412 10.107-3.288 1.883-3.699.411-8.224-3.288-10.107-8.827-4.494-18.348-6.772-28.298-6.772-34.503 0-62.574 28.071-62.574 62.574 0 13.916 11.321 25.236 25.237 25.236 13.915 0 25.236-11.32 25.236-25.236 0-6.673 5.428-12.101 12.101-12.101s12.101 5.428 12.101 12.101-5.428 12.101-12.101 12.101c-13.916 0-25.236 11.32-25.236 25.236s11.32 25.237 25.236 25.237c6.673 0 12.101 5.428 12.101 12.101s-5.428 12.1-12.101 12.1z"/><path d="m404.477 186.45c0-81.871-66.606-148.478-148.477-148.478s-148.477 66.606-148.477 148.478c0 4.151 3.364 7.516 7.516 7.516 4.151 0 7.516-3.364 7.516-7.516 0-73.583 59.864-133.447 133.446-133.447s133.446 59.864 133.446 133.447c0 73.582-59.864 133.446-133.446 133.446-30.67 0-60.619-10.661-84.329-30.017-23.387-19.093-39.759-45.757-46.1-75.081-.878-4.056-4.87-6.632-8.935-5.758-4.057.878-6.635 4.878-5.758 8.934 7.059 32.64 25.273 62.31 51.287 83.548 26.387 21.542 59.711 33.405 93.835 33.405 81.869-.001 148.476-66.607 148.476-148.477z"/><path d="m397.573 398.8c-1.363-3.919-5.642-5.994-9.569-4.627-3.919 1.364-5.991 5.648-4.627 9.569l18.873 54.223-51.527-5.396c-2.216-.232-4.437.536-6.038 2.101l-37.041 36.223-41.174-118.295c35.041-1.949 67.527-13.62 94.807-32.352l12.21 35.08c1.079 3.102 3.988 5.047 7.098 5.047.819 0 1.653-.135 2.471-.42 3.919-1.364 5.991-5.648 4.627-9.569l-13.785-39.606c41.814-34.22 68.552-86.209 68.552-144.33-.001-102.807-83.642-186.448-186.45-186.448s-186.449 83.641-186.449 186.45c0 58.121 26.737 110.11 68.552 144.33l-46.44 133.423c-1.702 4.412 2.2 10.651 7.881 9.945l59.787-6.261 42.978 42.029c3.298 3.479 10.533 2.526 12.353-2.902l41.338-118.768 41.338 118.768c1.587 4.728 8.112 6.893 12.353 2.902l42.978-42.029 59.787 6.261c4.965.631 9.663-4.542 7.881-9.945zm-312.991-212.35c0-94.52 76.897-171.419 171.418-171.419s171.418 76.898 171.418 171.419-76.897 171.417-171.418 171.417-171.418-76.897-171.418-171.417zm119.774 304.444-37.041-36.223c-1.599-1.563-3.804-2.335-6.038-2.101l-51.527 5.396 40.974-117.719c27.28 18.732 59.766 30.403 94.807 32.352z"/></g></g></svg>